<svg width="22" height="25" viewBox="0 0 22 25" fill="none" xmlns="http://www.w3.org/2000/svg">
<g id="Dribbble">
<path id="Dribbble_2" d="M18.3512 10.2695C18.6872 11.7155 18.6872 13.1614 18.3511 14.6074C18.0149 16.0536 17.3691 17.3169 16.4132 18.3983C15.4573 19.4796 14.3403 20.2105 13.062 20.5906C11.7838 20.9709 10.5056 20.9709 9.22729 20.5908C7.94887 20.2105 6.83183 19.4797 5.87605 18.3985C4.92023 17.3172 4.27439 16.0537 3.9381 14.6076C3.60207 13.1616 3.60207 11.7157 3.93813 10.2696C4.27432 8.82348 4.92028 7.55989 5.8761 6.47862C6.83192 5.39736 7.94902 4.66652 9.22729 4.28625C10.5054 3.90596 11.7837 3.90618 13.0619 4.28634C14.3402 4.66668 15.4572 5.39753 16.413 6.47873C17.3689 7.56002 18.0149 8.8237 18.3512 10.2695ZM15.6447 17.5292C16.7789 16.2463 17.394 14.702 17.4901 12.8965L17.2844 12.8578C17.202 12.8421 17.0237 12.8345 16.7493 12.8344C16.475 12.8344 16.1948 12.8563 15.909 12.9003C15.623 12.9444 15.2619 13.0348 14.825 13.172C14.3882 13.3091 13.9526 13.4888 13.5181 13.7113C13.9618 15.4031 14.2728 17.0275 14.4511 18.5847C14.8994 18.2742 15.2972 17.9224 15.6447 17.5292ZM10.4108 19.5858C11.4031 19.7151 12.3635 19.5911 13.2919 19.2133C13.1044 17.7182 12.7979 16.1092 12.3726 14.3864C10.6165 15.5453 9.04783 16.9058 7.66674 18.4683C8.5037 19.0839 9.41843 19.4565 10.4108 19.5858ZM5.32373 15.3524C5.63695 16.1621 6.07724 16.8877 6.64439 17.5293C6.70844 17.6018 6.75883 17.6535 6.79533 17.6845C8.45096 15.8116 10.2025 14.3112 12.0502 13.1835C11.9131 12.6971 11.7804 12.2729 11.6523 11.9107C11.6247 11.9213 11.5849 11.9431 11.5323 11.9767C11.4795 12.0105 11.442 12.0351 11.4189 12.0507L11.076 12.2369C10.838 12.3611 10.5007 12.4944 10.0641 12.6366C9.62723 12.7787 9.14372 12.9068 8.61314 13.0206C8.08254 13.1344 7.472 13.181 6.78135 13.1601C6.09079 13.1394 5.42777 13.0283 4.79209 12.8266C4.83323 13.7009 5.0106 14.5429 5.32373 15.3524ZM6.64439 7.34768C5.57419 8.55833 4.96142 10.0277 4.80584 11.7556L4.83325 11.5538C5.34555 11.7712 5.9195 11.8877 6.5552 11.903C7.19085 11.9184 7.75233 11.8759 8.23944 11.7751C8.72636 11.6741 9.2271 11.5318 9.74187 11.3483C10.2562 11.1646 10.5992 11.0303 10.7707 10.9446C10.9422 10.8592 11.0784 10.7908 11.179 10.7391L11.1996 10.7315L11.2134 10.7158C10.4861 8.87939 9.66753 7.22877 8.75736 5.76474C7.95233 6.13712 7.2482 6.66479 6.64439 7.34768ZM12.4996 5.40356C11.6375 5.19399 10.7809 5.18236 9.93056 5.36858C10.7947 6.77074 11.5748 8.315 12.2697 10.0016C13.3218 9.13264 14.1905 7.99951 14.8767 6.60276C14.154 6.01301 13.3615 5.61321 12.4996 5.40356ZM15.6379 7.49517C15.6013 7.55717 15.5544 7.63366 15.4972 7.72409C15.44 7.81452 15.3702 7.92463 15.2879 8.05398C15.2057 8.18317 15.1106 8.3243 15.0032 8.47684C14.8957 8.62949 14.7791 8.7898 14.6532 8.95808C14.5276 9.12622 14.3902 9.30206 14.2417 9.48569C14.0929 9.66952 13.9387 9.85182 13.7786 10.0329C13.6186 10.2138 13.4458 10.3989 13.2607 10.5877C13.0757 10.7766 12.8892 10.951 12.7017 11.1114C12.7108 11.1529 12.7315 11.2149 12.7635 11.2977C12.7955 11.3804 12.8206 11.4427 12.8392 11.4838C12.9443 11.7995 13.0609 12.1591 13.1887 12.5627C13.6325 12.3507 14.0807 12.1772 14.5336 12.0426C14.9863 11.9082 15.3634 11.8177 15.6653 11.771C15.9673 11.7246 16.268 11.6975 16.5675 11.6897C16.8671 11.6818 17.0681 11.6845 17.1712 11.6973C17.2743 11.7103 17.3737 11.7245 17.4696 11.74L17.4834 11.74C17.337 10.0638 16.7404 8.61772 15.6929 7.40202L15.6379 7.49517Z" fill="white"/>
</g>
</svg>
