<svg width="15" height="17" viewBox="0 0 15 17" fill="none" xmlns="http://www.w3.org/2000/svg">
<g id="Instagram">
<path id="Instagram_2" fill-rule="evenodd" clip-rule="evenodd" d="M4.52664 0.467624C3.38335 0.525978 2.39242 0.842181 1.59226 1.74353C0.789302 2.64962 0.513255 3.77504 0.461541 5.05491C0.429395 5.85375 0.24142 11.8888 0.786508 13.4715C1.15409 14.5392 1.87806 15.3602 2.83057 15.7773C3.27502 15.9729 3.78239 16.1053 4.52664 16.1439C10.7497 16.4625 13.0565 16.2891 14.0293 13.4715C14.2019 12.9699 14.3207 12.3965 14.3536 11.5566C14.638 4.49882 14.3075 2.96899 13.2229 1.74353C12.3626 0.772782 11.3507 0.111973 4.52664 0.467624ZM4.58393 14.7245C3.90257 14.6898 3.5329 14.5614 3.28621 14.4533C2.66565 14.1805 2.19953 13.6554 1.95983 12.9575C1.54473 11.7549 1.6824 6.04315 1.71944 5.11892C1.75578 4.21362 1.91791 3.38625 2.48256 2.7475C3.18139 1.95891 4.08427 1.57243 10.2319 1.88629C11.0341 1.92729 11.7672 2.11032 12.3333 2.7475C13.0321 3.53608 13.3787 4.56531 13.0964 11.493C13.0656 12.2619 12.9517 12.6791 12.856 12.9575C12.2236 14.7909 10.7686 15.0454 4.58393 14.7245ZM10.2997 4.09595C10.2997 4.61799 10.6749 5.0425 11.1383 5.0425C11.6016 5.0425 11.9776 4.61799 11.9776 4.09595C11.9776 3.57391 11.6016 3.14978 11.1383 3.14978C10.6749 3.14978 10.2997 3.57391 10.2997 4.09595ZM3.81942 8.30539C3.81942 10.5418 5.42603 12.355 7.40791 12.355C9.38979 12.355 10.9964 10.5418 10.9964 8.30539C10.9964 6.06897 9.38979 4.25694 7.40791 4.25694C5.42603 4.25694 3.81942 6.06897 3.81942 8.30539ZM5.07871 8.30539C5.07871 6.8544 6.12137 5.67716 7.40791 5.67716C8.69446 5.67716 9.73712 6.8544 9.73712 8.30539C9.73712 9.75718 8.69446 10.9348 7.40791 10.9348C6.12137 10.9348 5.07871 9.75718 5.07871 8.30539Z" fill="white"/>
</g>
</svg>
