<svg width="13" height="15" viewBox="0 0 13 15" fill="none" xmlns="http://www.w3.org/2000/svg">
<g id="LinkedIn">
<path id="LinkedIn_2" fill-rule="evenodd" clip-rule="evenodd" d="M12.0335 14.0383H9.69239V9.40446C9.69239 8.13328 9.19667 7.42406 8.30765 7.42406C7.34021 7.42406 6.76606 8.16308 6.76606 9.40446V14.0383H4.42499V5.43138H6.76606V6.39927C6.76606 6.39927 7.50056 4.94129 9.1557 4.94129C10.8114 4.94129 12.0335 6.08425 12.0335 8.44918V14.0383ZM1.75735 4.05487C0.967822 4.05487 0.328125 3.3253 0.328125 2.42555C0.328125 1.52645 0.967822 0.796875 1.75735 0.796875C2.54629 0.796875 3.18598 1.52645 3.18598 2.42555C3.18656 3.3253 2.54629 4.05487 1.75735 4.05487ZM0.328125 14.0383H3.25446V5.43138H0.328125V14.0383Z" fill="white"/>
</g>
</svg>
