<svg width="16" height="15" viewBox="0 0 16 15" fill="none" xmlns="http://www.w3.org/2000/svg">
<path id="Twitter" fill-rule="evenodd" clip-rule="evenodd" d="M5.38236 14.0383C10.6827 14.0383 13.5818 8.94324 13.5818 4.52535C13.5818 4.38032 13.5818 4.23637 13.5734 4.09297C14.1373 3.62037 14.624 3.0336 15.011 2.3622C14.4857 2.63271 13.9273 2.81012 13.3564 2.88834C13.9575 2.47034 14.4077 1.81365 14.6233 1.03876C14.0573 1.42824 13.4385 1.70312 12.7931 1.8506C11.7017 0.504535 9.87642 0.439318 8.71551 1.70553C7.96755 2.52197 7.6494 3.73926 7.88187 4.90036C5.56496 4.76511 3.40606 3.49565 1.94246 1.4073C1.17764 2.93506 1.56883 4.88877 2.83509 5.8698C2.37648 5.85432 1.92771 5.71107 1.52669 5.45196V5.49439C1.52739 7.08572 2.49447 8.45593 3.83868 8.77125C3.41449 8.9057 2.96923 8.92519 2.53801 8.82823C2.91515 10.1906 3.99741 11.1237 5.22996 11.1506C4.2095 12.0811 2.94886 12.5864 1.651 12.5848C1.42205 12.5839 1.19309 12.5684 0.964844 12.5367C2.28307 13.5177 3.81621 14.0383 5.38236 14.0359" fill="white"/>
</svg>
